<svg width="35" height="35" xmlns="http://www.w3.org/2000/svg" xmlns:xlink="http://www.w3.org/1999/xlink" preserveAspectRatio="xMidYMid meet">
 <defs>
  <path d="m1257.87,639.92c0,340.94 -276.86,617.75 -617.87,617.75c-341.01,0 -617.87,-276.81 -617.87,-617.75c0,-340.95 276.86,-617.75 617.87,-617.75c341.01,0 617.87,276.8 617.87,617.75z" id="aUUihwN8l"/>
  <path d="m945.03,171.81l-770.06,770.77l770.06,0l0,-770.77z" id="adWolJiFd"/>
  <path d="m626.54,791.95l150.48,150.63l-300.97,0l-300.95,0l150.46,-150.63l150.49,-150.63l150.49,150.63z" id="b1DSgKZ545"/>
  <path d="m626.6,490.67l150.42,-150.62l-0.02,301.28l-0.02,301.26l-150.4,-150.63l-150.4,-150.65l150.42,-150.64z" id="dkELJHkM3"/>
 </defs>
 <g>
  <title>background</title>
  <rect x="-1" y="-1" width="37" height="37" id="canvas_background" fill="none"/>
 </g>
 <g>
  <title>Layer 1</title>
  <g stroke="null" id="svg_1">
   <g stroke="null" id="svg_2">
    <use stroke="null" x="-363.986355" y="-358.501772" transform="matrix(0.027591550762551532,0,0,0.02751269999789501,9.845193070589398,9.637856355193328) " xlink:href="#aUUihwN8l" fill="#ffffff" id="svg_3"/>
    <g stroke="null" id="svg_4">
     <use stroke="#607D8B" x="-363.986355" y="-358.501772" transform="matrix(0.027591550762551532,0,0,0.02751269999789501,9.845193070589398,9.637856355193328) " xlink:href="#aUUihwN8l" fill-opacity="0" stroke-width="45" id="svg_5"/>
    </g>
   </g>
   <g stroke="null" id="svg_6">
    <use stroke="null" x="-363.986355" y="-358.501772" transform="matrix(0.027591550762551532,0,0,0.02751269999789501,9.845193070589398,9.637856355193328) " xlink:href="#adWolJiFd" fill="#263238" id="svg_7"/>
   </g>
   <g stroke="null" id="svg_8">
    <use stroke="null" x="-363.986355" y="-358.501772" transform="matrix(0.027591550762551532,0,0,0.02751269999789501,9.845193070589398,9.637856355193328) " xlink:href="#b1DSgKZ545" fill="#607d8b" id="svg_9"/>
   </g>
   <g stroke="null" id="svg_10">
    <use stroke="null" x="-363.986355" y="-358.501772" transform="matrix(0.027591550762551532,0,0,0.02751269999789501,9.845193070589398,9.637856355193328) " xlink:href="#dkELJHkM3" fill="#455a64" id="svg_11"/>
   </g>
  </g>
 </g>
</svg>